<?xml version="1.0" encoding="utf-8"?>
<!-- Generator: Adobe Illustrator 19.1.0, SVG Export Plug-In . SVG Version: 6.00 Build 0)  -->
<svg version="1.1" id="Layer_13" xmlns="http://www.w3.org/2000/svg" xmlns:xlink="http://www.w3.org/1999/xlink" x="0px" y="0px"
	 viewBox="0 0 24 24" style="enable-background:new 0 0 24 24;" xml:space="preserve">
<style type="text/css">
	.st0{fill-rule:evenodd;clip-rule:evenodd;}
	.Graphic_x0020_Style_x0020_29{fill:#ED2A24;}
	.st1{fill:#B0BCD1;}
	.st2{fill-rule:evenodd;clip-rule:evenodd;fill:#B0BCD1;}
	.st3{fill:none;}
</style>
<symbol  id="New_Symbol_16" viewBox="-306.8 -15.5 615.6 28.2">
	<path d="M-140.8,5.6c3.9,0,7.4-1.4,10.1-3.8l1.9,2.1c-3.2,2.8-7.4,4.8-12,4.8c-4.6,0-8.8-2-12-4.8l1.9-2.1
		C-148.2,4.2-144.7,5.6-140.8,5.6z"/>
	<path d="M-140.8-0.4c2.3,0,4.4-0.9,6.1-2.3l2,2.2c-2.2,1.9-5,3.1-8.1,3.1c-3.1,0-5.9-1.2-8.1-3.1l2-2.2
		C-145.3-1.3-143.2-0.4-140.8-0.4z"/>
	<path d="M-136.7-4.9c-1.1,0.9-2.5,1.6-4.1,1.6c-1.6,0-3-0.6-4.1-1.6l4.1-4.6L-136.7-4.9z"/>
	<path class="st0" d="M-301.3,4.7c3,0,5.5-2.5,5.5-5.5s-2.5-5.5-5.5-5.5c-3,0-5.5,2.5-5.5,5.5S-304.4,4.7-301.3,4.7z"/>
	<path class="st0" d="M-287.3,4.7c3,0,5.5-2.5,5.5-5.5s-2.5-5.5-5.5-5.5c-3,0-5.5,2.5-5.5,5.5S-290.4,4.7-287.3,4.7z"/>
	<path class="st0" d="M-273.3,4.7c3,0,5.5-2.5,5.5-5.5s-2.5-5.5-5.5-5.5c-3,0-5.5,2.5-5.5,5.5S-276.4,4.7-273.3,4.7z"/>
	<path d="M-245.3,4.2c2.8,0,5-2.2,5-5s-2.2-5-5-5s-5,2.2-5,5S-248.1,4.2-245.3,4.2 M-245.3,4.7c-3,0-5.5-2.5-5.5-5.5
		s2.5-5.5,5.5-5.5c3,0,5.5,2.5,5.5,5.5S-242.3,4.7-245.3,4.7L-245.3,4.7z"/>
	<text transform="matrix(1 0 0 -1 -231.8379 -8.8359)" style="font-family:'SFUIText-Medium'; font-size:24px;">Drops</text>
	<text transform="matrix(1 0 0 -1 191.4785 -8.8359)" style="font-family:'SFUIText-Medium'; font-size:24px;">100%</text>
	<path class="st0" d="M305.7,2.7c2,0,3-1.6,3-3.5s-1-3.5-3-3.5V2.7z"/>
	<path d="M301.9,8.4c1.1,0,1.8-1.5,1.8-2.6v-13c0-1.1-0.5-1-1.6-1h-39c-1.1,0-2.4-0.1-2.4,1v13c0,1.1,1.3,3,2.4,3h38.6 M302.2,9.8
		h-39c-1.7,0-3.4-2.4-3.4-4v-13c0-1.7,1.8-2,3.4-2h39c1.7,0,2.6,0.3,2.6,2v13C304.7,7.4,303.8,9.8,302.2,9.8L302.2,9.8z"/>
	<path class="st0" d="M282.7,7.8h-18.6c-1.1,0-2.4-1.9-2.4-3v-11c0-1.1,1.3-1,2.4-1h18.6V7.8z"/>
	<text transform="matrix(1 0 0 -1 -50.0508 -8.8359)" style="font-family:'SFUIText-Medium'; font-size:24px;">8:08 AM</text>
	<path d="M-259.3,4.2c2.8,0,5-2.2,5-5s-2.2-5-5-5s-5,2.2-5,5S-262.1,4.2-259.3,4.2 M-259.3,4.7c-3,0-5.5-2.5-5.5-5.5
		s2.5-5.5,5.5-5.5c3,0,5.5,2.5,5.5,5.5S-256.3,4.7-259.3,4.7L-259.3,4.7z"/>
</symbol>
<path class="st1" d="M18.8,5.2H5.2c-0.9,0-1.7,0.8-1.7,1.7l0,10.2c0,0.9,0.8,1.7,1.7,1.7h13.7c0.9,0,1.7-0.8,1.7-1.7V6.9
	C20.5,5.9,19.8,5.2,18.8,5.2z M18.8,8.6L12,12.9L5.2,8.6V6.9l6.8,4.3l6.8-4.3V8.6z"/>
</svg>
